<?xml version="1.0" encoding="utf-8"?>
<!-- Generator: Adobe Illustrator 16.0.0, SVG Export Plug-In . SVG Version: 6.00 Build 0)  -->
<!DOCTYPE svg PUBLIC "-//W3C//DTD SVG 1.1//EN" "http://www.w3.org/Graphics/SVG/1.1/DTD/svg11.dtd">
<svg version="1.1" id="Capa_1" xmlns="http://www.w3.org/2000/svg" xmlns:xlink="http://www.w3.org/1999/xlink" x="0px" y="0px"
	 width="682.667px" height="682.667px" viewBox="0 0 682.667 682.667" enable-background="new 0 0 682.667 682.667"
	 xml:space="preserve">
<path fill="#FFFFFF" d="M604.671,0H35.297C15.801,0.012-0.004,15.824,0,35.328v569.375C0.012,624.199,15.824,640.003,35.328,640
	h306.546V392.5H258.75v-96.875h83.125v-71.293c0-82.676,50.473-127.676,124.223-127.676c35.324,0,65.68,2.633,74.527,3.809v86.41
	h-50.855c-40.125,0-47.895,19.066-47.895,47.051v61.699h95.938l-12.5,96.875h-83.438V640h162.797
	c19.508,0.004,35.324-15.805,35.328-35.313c0-0.004,0-0.008,0-0.016V35.297C639.992,15.801,624.175-0.004,604.671,0z"/>
</svg>
