<?xml version="1.0" encoding="utf-8"?>
<!-- Generator: Adobe Illustrator 16.0.0, SVG Export Plug-In . SVG Version: 6.00 Build 0)  -->
<!DOCTYPE svg PUBLIC "-//W3C//DTD SVG 1.1//EN" "http://www.w3.org/Graphics/SVG/1.1/DTD/svg11.dtd">
<svg version="1.1" id="Capa_1" xmlns="http://www.w3.org/2000/svg" xmlns:xlink="http://www.w3.org/1999/xlink" x="0px" y="0px"
	 width="585.857px" height="241px" viewBox="0 0 585.857 241" enable-background="new 0 0 585.857 241" xml:space="preserve">
<path fill="#FFFFFF" d="M205.585,116.414c-63.256,0-125.988,0-189.583,0c3.222-15.139,6.286-29.536,9.485-44.567
	c2.292,0,4.389,0,6.486,0c59.488,0,118.976-0.053,178.463,0.107c4.396,0.012,6.142-1.305,6.808-5.548
	c1.079-6.872,2.695-13.66,4.234-21.221c-63.355,0-126.361,0-190.005,0c2.992-14.585,5.76-28.393,8.766-42.149
	c0.25-1.142,1.977-2.257,3.264-2.789c1.142-0.472,2.625-0.123,3.958-0.123c74.818-0.001,149.636-0.001,224.454-0.001
	c2.109,0,4.218,0,7.08,0c-1.665,8.089-3.107,15.368-4.665,22.622c-12.219,56.91-24.425,113.821-36.853,170.687
	c-0.4,1.832-2.879,3.973-4.826,4.59c-27.898,8.832-55.874,17.422-83.826,26.084c-11.436,3.543-22.807,7.312-34.332,10.537
	c-2.942,0.823-6.634,0.764-9.508-0.244c-33.433-11.705-66.749-23.742-100.171-35.478c-4.297-1.508-5.515-3.315-4.453-7.872
	c3.319-14.246,6.209-28.593,9.144-42.926c0.658-3.211,1.841-4.698,5.546-4.621c12.825,0.268,25.659,0.094,38.49,0.116
	c1.46,0.002,2.921,0.179,4.847,0.305c-1.253,5.899-2.35,11.418-3.62,16.897c-0.742,3.199-0.268,5.074,3.362,6.315
	c19.511,6.679,38.902,13.706,58.392,20.448c1.875,0.648,4.301,0.688,6.205,0.12c23.103-6.905,46.147-14.005,69.233-20.97
	c2.857-0.862,4.208-2.271,4.818-5.403c2.636-13.544,5.675-27.01,8.525-40.513C205.541,119.696,205.462,118.508,205.585,116.414z"/>
<path fill="#FFFFFF" d="M521.977,0.509c11.494,0,22.996-0.256,34.478,0.146c3.759,0.131,7.688,1.494,11.127,3.151
	c4.623,2.229,8.789,5.386,13.263,7.951c2.396,1.374,3.084,3.011,2.492,5.723c-8.016,36.708-15.909,73.444-24.028,110.129
	c-0.418,1.888-2.273,4.049-4.039,4.94c-6.372,3.224-12.946,6.066-19.545,8.814c-1.925,0.801-4.18,1.124-6.284,1.131
	c-23.487,0.077-46.976,0.098-70.463-0.027c-2.381-0.013-4.96-0.671-7.097-1.733c-5.805-2.889-11.368-6.258-17.139-9.223
	c-2.481-1.275-3.145-2.632-2.505-5.484c5.377-24.007,10.549-48.063,15.803-72.098c2.733-12.505,5.364-25.038,8.402-37.469
	c0.53-2.17,2.479-4.482,4.416-5.743c13.269-8.642,27.83-11.912,43.639-10.303C510.266,1.001,516.146,0.508,521.977,0.509z
	 M479.126,115.524c12.738,0,24.684,0.093,36.621-0.171c0.985-0.022,2.462-2.345,2.792-3.806c5.1-22.551,10.058-45.134,15.019-67.716
	c1.152-5.245,2.196-10.514,3.419-16.397c-12.771,0-24.573-0.11-36.368,0.179c-1.11,0.027-2.792,2.423-3.142,3.961
	c-4.414,19.466-8.644,38.974-12.894,58.477C482.778,98.29,481.045,106.541,479.126,115.524z"/>
<path fill="#FFFFFF" d="M332.72,83.865c-3.472,14.657-6.839,28.887-10.216,43.115c-0.5,2.103-1.035,4.196-1.573,6.291
	c-2.382,9.273-2.384,9.273-11.735,9.273c-8.83,0-17.66,0.042-26.489-0.02c-4.821-0.034-7.803-3.502-6.815-8.043
	c9.439-43.379,18.979-86.736,28.303-130.142c0.709-3.301,2.164-3.873,5.032-3.868c32.653,0.059,65.309,0.013,97.961,0.107
	c1.883,0.005,3.911,0.689,5.611,1.563c3.846,1.977,7.529,4.268,11.276,6.435c7.081,4.097,7.074,4.097,5.359,11.861
	c-3.585,16.238-7.042,32.505-10.889,48.681c-0.51,2.142-2.609,4.581-4.618,5.566c-6.261,3.068-12.782,5.63-19.309,8.111
	c-2.101,0.798-4.525,1.013-6.804,1.023C369.67,83.9,351.523,83.865,332.72,83.865z M382.24,27.168
	c-12.209,0-23.651-0.029-35.092,0.062c-0.806,0.006-2.174,0.76-2.318,1.389c-2.219,9.618-4.278,19.273-6.513,29.556
	c12.209,0,23.505,0.053,34.798-0.092c1.004-0.013,2.677-1.16,2.883-2.049C378.162,46.688,380.091,37.288,382.24,27.168z"/>
<path fill="#FFFFFF" d="M259.568,199.471c2.891-13.02,5.472-25.003,8.336-36.919c0.254-1.056,2.315-2.295,3.603-2.375
	c4.639-0.284,9.313-0.262,13.962-0.063c4.326,0.184,6.217,2.683,5.291,6.886c-1.943,8.818-3.694,17.707-6.288,26.336
	c-0.737,2.452-3.905,5.503-6.314,5.857C272.348,200.048,266.328,199.471,259.568,199.471z M277.109,183.564
	c-6.021-1.029-7.522,0.899-6.865,8.818C276.359,193.047,277.051,192.158,277.109,183.564z M273.301,175.4
	c6.729,0.932,6.729,0.932,7.537-8.162c-1.906,0-3.792,0-5.854,0C274.41,170.021,273.888,172.553,273.301,175.4z"/>
<path fill="#FFFFFF" d="M349.169,160.059c-1.348,12.769-2.394,24.518-3.907,36.205c-0.707,5.465-5.234,2.012-8.678,3.285
	c0.262-3.341,0.475-6.056,0.713-9.088c-3.592-0.551-7.553-2.186-8.611,3.198c-1.149,5.856-4.776,6.299-10.153,5.13
	c0.78-2.449,1.438-4.751,2.244-7c3.363-9.395,6.861-18.741,10.105-28.176c0.908-2.641,2.238-3.732,5.042-3.603
	C340.039,160.201,344.168,160.059,349.169,160.059z M338.201,182.624c0.57-5.341,1.094-10.254,1.618-15.168
	c-0.521-0.11-1.042-0.22-1.563-0.33c-1.767,5.039-3.535,10.077-5.436,15.498C334.793,182.624,336.237,182.624,338.201,182.624z"/>
<path fill="#FFFFFF" d="M462.639,199.214c-3.154,0-5.871,0-8.738,0c-0.816-4.276-1.585-8.305-2.354-12.333
	c-0.371-0.101-0.742-0.203-1.113-0.304c-0.924,1.979-2.185,3.873-2.712,5.952c-1.878,7.414-1.783,7.438-10.119,6.113
	c2.076-9.504,4.148-18.982,6.218-28.463c0.282-1.297,0.541-2.601,0.823-3.897c1.498-6.841,2.114-7.198,9.959-5.468
	c-0.476,2.668-0.954,5.363-1.678,9.416c5.256-5.125,7.554-13.426,17.229-9.158c-2.724,3.595-5.268,7.311-8.188,10.703
	c-2.459,2.854-3.405,5.621-2.48,9.469C460.868,187.006,461.572,192.932,462.639,199.214z"/>
<path fill="#FFFFFF" d="M393.906,175.995c2.494,0,4.953-0.095,7.401,0.021c4.958,0.229,6.935,2.729,5.913,7.43
	c-0.67,3.088-1.568,6.129-2.151,9.23c-0.9,4.784-4.053,6.518-8.499,6.588c-3.332,0.053-6.666-0.022-9.998-0.009
	c-3.38,0.015-6.135-1.028-6.092-4.901c0.053-4.834,3.893-3.405,6.663-3.533c0.631-0.028,1.31,0.21,1.908,0.461
	c6.236,2.615,7.286,2.074,8.539-4.5c0.211-1.109,0.338-2.234,0.588-3.924c-2.774,0-5.243,0.057-7.708-0.012
	c-5.347-0.147-6.885-1.996-6.027-7.132c2.51-15.062,3.266-15.792,18.492-15.565c2.459,0.037,5.077,0.984,7.25,2.185
	c0.765,0.422,0.804,2.964,0.433,4.337c-0.229,0.841-1.801,1.652-2.883,1.848c-1.425,0.256-3.103,0.256-4.425-0.264
	C394.298,164.721,394.471,168.047,393.906,175.995z"/>
<path fill="#FFFFFF" d="M528.328,160.093c0.4,5.274-1.276,7.48-5.91,6.771c-0.975-0.149-1.992-0.021-2.991-0.021
	c-8.172,0.001-8.172,0.001-8.611,9.028c2.39,0.227,4.81,0.458,7.206,0.686c0.26,5.975,0.26,5.975-9.254,6.693
	c-0.723,2.764-1.492,5.714-2.453,9.393c5.384,0,10.108,0,14.803,0c0.523,5.485-1.535,7.36-6.53,7.037
	c-5.89-0.382-11.822-0.09-18.385-0.09c2.878-13.001,5.512-25.126,8.334-37.208c0.215-0.922,1.742-2.165,2.688-2.19
	C514.178,160.007,521.139,160.093,528.328,160.093z"/>
<path fill="#FFFFFF" d="M560.646,166.659c-0.271-4.817,1.268-7.041,6.277-6.701c6.075,0.412,12.198,0.099,18.934,0.099
	c-0.527,2.707-0.896,4.601-1.313,6.735c-2.648,0.168-5.102,0.324-8.056,0.512c-1.956,8.737-3.955,17.458-5.852,26.201
	c-1.436,6.622-1.984,6.995-9.7,5.293c2.203-10.159,4.409-20.331,6.761-31.171C565.313,167.3,563.165,167.005,560.646,166.659z"/>
</svg>
