<?xml version="1.0" encoding="utf-8"?>
<!-- Generator: Adobe Illustrator 16.0.0, SVG Export Plug-In . SVG Version: 6.00 Build 0)  -->
<!DOCTYPE svg PUBLIC "-//W3C//DTD SVG 1.1//EN" "http://www.w3.org/Graphics/SVG/1.1/DTD/svg11.dtd">
<svg version="1.1" id="Capa_1" xmlns="http://www.w3.org/2000/svg" xmlns:xlink="http://www.w3.org/1999/xlink" x="0px" y="0px"
	 width="585.857px" height="241px" viewBox="0 0 585.857 241" enable-background="new 0 0 585.857 241" xml:space="preserve">
<path fill-rule="evenodd" clip-rule="evenodd" d="M205.585,116.414c-63.256,0-125.988,0-189.583,0
	c3.222-15.139,6.286-29.536,9.485-44.567c2.292,0,4.389,0,6.486,0c59.488,0,118.976-0.053,178.463,0.107
	c4.396,0.012,6.142-1.305,6.808-5.548c1.079-6.872,2.695-13.66,4.234-21.221c-63.355,0-126.361,0-190.005,0
	c2.992-14.585,5.76-28.393,8.766-42.149c0.25-1.142,1.977-2.257,3.264-2.789c1.142-0.472,2.625-0.123,3.958-0.123
	c74.818-0.001,149.636-0.001,224.454-0.001c2.109,0,4.218,0,7.08,0c-1.665,8.089-3.107,15.368-4.665,22.622
	c-12.219,56.91-24.425,113.822-36.853,170.687c-0.4,1.832-2.879,3.972-4.826,4.589c-27.898,8.833-55.874,17.423-83.826,26.084
	c-11.436,3.543-22.807,7.312-34.332,10.537c-2.942,0.824-6.634,0.764-9.508-0.243c-33.433-11.706-66.749-23.743-100.171-35.478
	c-4.297-1.508-5.515-3.315-4.453-7.872c3.319-14.246,6.209-28.593,9.144-42.926c0.658-3.211,1.841-4.698,5.546-4.621
	c12.825,0.268,25.659,0.094,38.49,0.116c1.46,0.002,2.921,0.179,4.847,0.305c-1.253,5.899-2.35,11.418-3.62,16.897
	c-0.742,3.2-0.268,5.074,3.362,6.316c19.511,6.678,38.902,13.706,58.392,20.448c1.875,0.648,4.301,0.688,6.205,0.12
	c23.103-6.905,46.147-14.005,69.233-20.97c2.857-0.862,4.208-2.27,4.818-5.403c2.636-13.544,5.675-27.01,8.525-40.513
	C205.541,119.696,205.462,118.508,205.585,116.414z"/>
<path fill-rule="evenodd" clip-rule="evenodd" d="M521.977,0.509c11.494,0,22.996-0.256,34.477,0.146
	c3.759,0.131,7.688,1.494,11.127,3.151c4.623,2.229,8.789,5.386,13.263,7.951c2.396,1.374,3.084,3.011,2.492,5.723
	c-8.016,36.708-15.909,73.444-24.028,110.129c-0.418,1.888-2.274,4.049-4.039,4.941c-6.372,3.224-12.947,6.066-19.545,8.814
	c-1.925,0.801-4.18,1.124-6.285,1.131c-23.487,0.077-46.975,0.098-70.462-0.027c-2.381-0.013-4.96-0.671-7.097-1.734
	c-5.805-2.888-11.368-6.258-17.139-9.222c-2.481-1.275-3.144-2.632-2.505-5.484c5.377-24.008,10.549-48.063,15.803-72.099
	c2.733-12.505,5.364-25.038,8.402-37.469c0.531-2.17,2.48-4.482,4.416-5.743c13.269-8.642,27.831-11.912,43.639-10.303
	C510.266,1.001,516.146,0.508,521.977,0.509z M479.126,115.524c12.738,0,24.684,0.093,36.621-0.171
	c0.985-0.022,2.462-2.345,2.792-3.806c5.1-22.551,10.058-45.134,15.019-67.716c1.152-5.245,2.196-10.514,3.419-16.397
	c-12.771,0-24.574-0.11-36.369,0.179c-1.11,0.027-2.792,2.423-3.141,3.961c-4.414,19.466-8.644,38.974-12.894,58.477
	C482.778,98.29,481.045,106.541,479.126,115.524z"/>
<path fill-rule="evenodd" clip-rule="evenodd" d="M332.72,83.865c-3.472,14.657-6.839,28.887-10.216,43.115
	c-0.5,2.103-1.035,4.197-1.573,6.291c-2.382,9.274-2.384,9.274-11.736,9.274c-8.83,0-17.66,0.042-26.489-0.02
	c-4.821-0.034-7.803-3.502-6.815-8.043c9.439-43.379,18.979-86.736,28.303-130.141c0.709-3.301,2.165-3.873,5.033-3.868
	c32.653,0.059,65.308,0.013,97.961,0.107c1.882,0.005,3.911,0.689,5.611,1.563c3.846,1.977,7.529,4.268,11.276,6.435
	c7.081,4.097,7.074,4.097,5.36,11.861c-3.585,16.238-7.042,32.505-10.889,48.681c-0.51,2.142-2.609,4.581-4.618,5.566
	c-6.261,3.068-12.782,5.63-19.309,8.111c-2.1,0.798-4.525,1.013-6.804,1.023C369.67,83.9,351.523,83.865,332.72,83.865z
	 M382.24,27.168c-12.209,0-23.651-0.029-35.092,0.062c-0.805,0.006-2.173,0.76-2.318,1.389c-2.219,9.618-4.278,19.273-6.513,29.556
	c12.209,0,23.505,0.053,34.798-0.092c1.004-0.013,2.677-1.16,2.883-2.049C378.162,46.688,380.091,37.288,382.24,27.168z"/>
<path fill-rule="evenodd" clip-rule="evenodd" d="M259.568,199.471c2.891-13.02,5.472-25.003,8.336-36.919
	c0.254-1.056,2.315-2.295,3.603-2.375c4.639-0.285,9.313-0.262,13.962-0.063c4.326,0.184,6.217,2.683,5.291,6.886
	c-1.943,8.818-3.694,17.707-6.288,26.336c-0.737,2.452-3.905,5.503-6.314,5.857C272.348,200.048,266.328,199.471,259.568,199.471z
	 M277.109,183.565c-6.021-1.03-7.522,0.899-6.865,8.818C276.359,193.047,277.051,192.158,277.109,183.565z M273.301,175.4
	c6.729,0.932,6.729,0.932,7.537-8.162c-1.906,0-3.792,0-5.854,0C274.41,170.021,273.888,172.553,273.301,175.4z"/>
<path fill-rule="evenodd" clip-rule="evenodd" d="M349.169,160.059c-1.348,12.768-2.394,24.517-3.907,36.205
	c-0.707,5.465-5.235,2.012-8.678,3.285c0.262-3.341,0.475-6.056,0.713-9.088c-3.592-0.551-7.553-2.186-8.611,3.198
	c-1.15,5.857-4.777,6.299-10.154,5.13c0.78-2.449,1.438-4.751,2.244-7c3.364-9.394,6.862-18.741,10.106-28.176
	c0.908-2.64,2.238-3.732,5.042-3.602C340.039,160.201,344.168,160.059,349.169,160.059z M338.201,182.624
	c0.57-5.341,1.094-10.254,1.618-15.168c-0.521-0.11-1.042-0.22-1.563-0.33c-1.767,5.039-3.535,10.077-5.436,15.498
	C334.793,182.624,336.237,182.624,338.201,182.624z"/>
<path fill-rule="evenodd" clip-rule="evenodd" d="M462.639,199.214c-3.155,0-5.871,0-8.739,0c-0.816-4.276-1.585-8.305-2.354-12.333
	c-0.371-0.101-0.742-0.203-1.113-0.304c-0.924,1.979-2.185,3.873-2.712,5.952c-1.878,7.414-1.783,7.438-10.119,6.113
	c2.076-9.503,4.148-18.982,6.217-28.462c0.283-1.297,0.541-2.601,0.824-3.898c1.498-6.84,2.114-7.198,9.959-5.467
	c-0.476,2.668-0.955,5.363-1.678,9.415c5.256-5.124,7.554-13.425,17.229-9.158c-2.723,3.595-5.267,7.311-8.188,10.703
	c-2.459,2.855-3.405,5.621-2.481,9.469C460.868,187.006,461.572,192.931,462.639,199.214z"/>
<path fill-rule="evenodd" clip-rule="evenodd" d="M393.906,175.995c2.494,0,4.953-0.094,7.402,0.02
	c4.958,0.229,6.934,2.73,5.913,7.431c-0.67,3.087-1.569,6.128-2.152,9.23c-0.9,4.784-4.052,6.517-8.499,6.588
	c-3.332,0.053-6.666-0.023-9.998-0.009c-3.38,0.014-6.135-1.029-6.092-4.902c0.053-4.834,3.893-3.405,6.664-3.532
	c0.63-0.029,1.309,0.209,1.908,0.46c6.236,2.616,7.286,2.075,8.539-4.5c0.211-1.109,0.338-2.234,0.588-3.924
	c-2.775,0-5.243,0.057-7.708-0.011c-5.347-0.148-6.885-1.997-6.028-7.132c2.51-15.061,3.266-15.792,18.493-15.565
	c2.459,0.037,5.077,0.984,7.25,2.184c0.764,0.422,0.803,2.964,0.432,4.337c-0.228,0.841-1.801,1.652-2.883,1.847
	c-1.424,0.256-3.102,0.256-4.424-0.263C394.298,164.721,394.471,168.047,393.906,175.995z"/>
<path fill-rule="evenodd" clip-rule="evenodd" d="M528.328,160.093c0.4,5.274-1.276,7.48-5.91,6.771
	c-0.975-0.149-1.992-0.021-2.991-0.021c-8.172,0.001-8.172,0.001-8.612,9.028c2.39,0.227,4.81,0.458,7.206,0.685
	c0.26,5.975,0.26,5.975-9.253,6.694c-0.723,2.764-1.493,5.714-2.454,9.393c5.384,0,10.109,0,14.803,0
	c0.524,5.485-1.535,7.36-6.53,7.037c-5.89-0.382-11.822-0.09-18.385-0.09c2.878-13.001,5.512-25.126,8.334-37.208
	c0.215-0.922,1.742-2.165,2.688-2.19C514.178,160.007,521.139,160.093,528.328,160.093z"/>
<path fill-rule="evenodd" clip-rule="evenodd" d="M560.647,166.659c-0.271-4.817,1.267-7.041,6.277-6.701
	c6.075,0.412,12.198,0.098,18.933,0.098c-0.527,2.708-0.896,4.601-1.313,6.736c-2.648,0.168-5.102,0.324-8.056,0.512
	c-1.956,8.737-3.955,17.458-5.851,26.201c-1.436,6.622-1.985,6.995-9.7,5.293c2.203-10.16,4.409-20.331,6.76-31.171
	C565.313,167.3,563.165,167.005,560.647,166.659z"/>
</svg>
